# File created by Blade
# Date/Time:  Wed Sep 24 20:15:16 2014
# Frame Rate: 120.000 fps
#------------------------------------------------------
:FULLY-SPECIFIED
:DEGREES
4258
root -5.900026 32.729262 -4.663999 15.719934 -9.980270 -3.671131
Spine -20.866755 -0.386542 3.429571
Head 9.303905 0.469433 7.501378
LeftShoulder -6.265501 19.846223 10.405728
LeftArm 20.223865 22.557795 -77.338239
LeftForeArm -4.593521 -0.000000 19.370655
LeftHand -22.330419 -0.000000 -1.483741
LeftHandThumb1 -26.253704 0.000000 33.147579
RightShoulder -21.062377 9.711261 -14.276907
RightArm -1.055666 -59.047247 94.247789
RightForeArm 60.766103 -0.000000 85.005779
RightHand -18.700829 0.000000 5.352928
RightHandThumb1 -24.326973 -0.000000 -32.862282
LeftUpLeg -9.266555 14.281918 3.516437
LeftLeg 0.195436 -0.000000 -0.000000
LeftFoot -15.822755 12.106955 -18.997554
LeftToeBase 9.458172 -0.000000 -0.000000
RightUpLeg -14.071492 0.516233 -1.842291
RightLeg 3.091751 -0.000000 -0.000000
RightFoot -8.532417 3.170288 -12.844842
RightToeBase -1.438638 -0.000000 0.000000
4259
root -5.901913 32.730238 -4.668692 15.705788 -9.875003 -3.668384
Spine -20.858494 -0.313176 3.424725
Head 9.291908 0.270872 7.438362
LeftShoulder -6.177075 19.792904 10.404539
LeftArm 20.189129 22.642865 -77.331640
LeftForeArm -4.707561 0.000000 19.336139
LeftHand -22.415510 -0.000000 -1.357305
LeftHandThumb1 -26.253704 0.000000 33.147579
RightShoulder -20.781700 9.832110 -14.435879
RightArm -0.608008 -60.643157 94.088079
RightForeArm 61.382023 -0.000000 84.683342
RightHand -18.890357 -0.000000 6.972962
RightHandThumb1 -24.326973 -0.000000 -32.862282
LeftUpLeg -9.283992 14.232670 3.535825
LeftLeg 0.202247 -0.000000 -0.000000
LeftFoot -15.785905 12.054803 -18.983939
LeftToeBase 9.415045 -0.000000 -0.000000
RightUpLeg -14.051078 0.462945 -1.823137
RightLeg 3.089380 -0.000000 -0.000000
RightFoot -8.526051 3.145777 -12.816870
RightToeBase -1.417684 -0.000000 0.000000
4260
root -5.903315 32.731164 -4.678773 15.705358 -9.750952 -3.663678
Spine -20.846585 -0.216733 3.394706
Head 9.242709 0.029955 7.412163
LeftShoulder -6.040562 19.760657 10.444587
LeftArm 20.201593 22.636380 -77.375857
LeftForeArm -4.738870 -0.000000 19.240660
LeftHand -22.376815 -0.000000 -1.378626
LeftHandThumb1 -26.253704 0.000000 33.147579
RightShoulder -20.549537 10.012265 -14.578145
RightArm -0.320808 -61.880379 94.010907
RightForeArm 61.824756 -0.000000 84.398997
RightHand -19.092655 -0.000000 8.742273
RightHandThumb1 -24.326973 -0.000000 -32.862282
LeftUpLeg -9.342735 14.107082 3.557612
LeftLeg 0.240010 -0.000000 -0.000000
LeftFoot -15.795197 12.112983 -18.833147
LeftToeBase 9.590451 -0.000000 -0.000000
RightUpLeg -14.054584 0.396653 -1.800976
RightLeg 3.092915 -0.000000 -0.000000
RightFoot -8.511938 3.097995 -12.819099
RightToeBase -1.396917 -0.000000 0.000000
4261
root -5.903228 32.731528 -4.688174 15.717847 -9.609908 -3.631420
Spine -20.862921 -0.131163 3.326719
Head 9.196860 -0.220946 7.401073
LeftShoulder -5.933283 19.722511 10.498488
LeftArm 20.222955 22.653896 -77.417457
LeftForeArm -4.682308 0.000000 19.132234
LeftHand -22.364804 -0.000000 -1.537016
LeftHandThumb1 -26.253704 0.000000 33.147579
RightShoulder -20.266756 10.132026 -14.692103
RightArm -0.078254 -62.760997 93.921070
RightForeArm 62.051450 -0.000000 84.208226
RightHand -19.134981 -0.000000 10.219731
RightHandThumb1 -24.326973 -0.000000 -32.862282
LeftUpLeg -9.421713 13.991734 3.547960
LeftLeg 0.278438 -0.000000 -0.000000
LeftFoot -15.773965 12.099404 -18.810019
LeftToeBase 9.568829 -0.000000 -0.000000
RightUpLeg -14.076407 0.296439 -1.800370
RightLeg 3.104236 -0.000000 -0.000000
RightFoot -8.512328 3.055786 -12.799752
RightToeBase -1.447199 -0.000000 0.000000
4262
root -5.902674 32.732270 -4.698057 15.742412 -9.452919 -3.608353
Spine -20.891840 -0.041835 3.265109
Head 9.152672 -0.481530 7.419376
LeftShoulder -5.832736 19.680967 10.548584
LeftArm 20.256233 22.699070 -77.452361
LeftForeArm -4.651821 -0.000000 19.038278
LeftHand -22.405895 -0.000000 -1.600431
LeftHandThumb1 -26.253704 0.000000 33.147579
RightShoulder -20.026209 10.216619 -14.776327
RightArm 0.147432 -63.407116 93.799236
RightForeArm 62.093279 -0.000000 84.048105
RightHand -19.009544 -0.000000 11.495102
RightHandThumb1 -24.326973 -0.000000 -32.862282
LeftUpLeg -9.513906 13.850277 3.551064
LeftLeg 0.316581 -0.000000 -0.000000
LeftFoot -15.763839 12.091468 -18.811890
LeftToeBase 9.595793 -0.000000 -0.000000
RightUpLeg -14.101320 0.180549 -1.787328
RightLeg 3.104085 -0.000000 -0.000000
RightFoot -8.516154 3.011439 -12.816648
RightToeBase -1.373839 -0.000000 0.000000
4263
root -5.902204 32.732700 -4.708796 15.765594 -9.273884 -3.591346
Spine -20.912088 0.022485 3.218053
Head 9.098436 -0.735533 7.446940
LeftShoulder -5.760714 19.636089 10.591030
LeftArm 20.291186 22.807380 -77.456178
LeftForeArm -4.698091 0.000000 18.977265
LeftHand -22.429125 0.000000 -1.615585
LeftHandThumb1 -26.253704 0.000000 33.147579
RightShoulder -19.765104 10.361563 -14.874970
RightArm 0.085103 -63.801548 93.875599
RightForeArm 61.966815 -0.000000 84.030507
RightHand -18.780875 -0.000000 12.104121
RightHandThumb1 -24.326973 -0.000000 -32.862282
LeftUpLeg -9.609334 13.703940 3.564275
LeftLeg 0.356943 -0.000000 -0.000000
LeftFoot -15.736530 12.054159 -18.924404
LeftToeBase 9.457220 -0.000000 -0.000000
RightUpLeg -14.123934 0.034994 -1.757439
RightLeg 3.102747 -0.000000 -0.000000
RightFoot -8.500921 2.960775 -12.850538
RightToeBase -1.459830 -0.000000 0.000000
4264
root -5.903236 32.733618 -4.720292 15.788958 -9.089511 -3.584525
Spine -20.930030 0.136402 3.158192
Head 9.047654 -1.049330 7.486089
LeftShoulder -5.612735 19.553734 10.659552
LeftArm 20.298395 22.888773 -77.477541
LeftForeArm -4.815712 -0.000000 18.880473
LeftHand -22.422363 0.000000 -1.533229
LeftHandThumb1 -26.253704 0.000000 33.147579
RightShoulder -19.536245 10.403763 -14.884993
RightArm 0.126208 -63.925389 93.833583
RightForeArm 61.623478 -0.000000 84.007120
RightHand -18.524944 -0.000000 12.721351
RightHandThumb1 -24.326973 -0.000000 -32.862282
LeftUpLeg -9.702624 13.585848 3.583957
LeftLeg 0.385791 -0.000000 -0.000000
LeftFoot -15.706643 12.032412 -18.757814
LeftToeBase 9.536315 -0.000000 -0.000000
RightUpLeg -14.135871 -0.068438 -1.728804
RightLeg 3.086112 -0.000000 -0.000000
RightFoot -8.483075 2.915600 -12.802562
RightToeBase -1.405300 -0.000000 0.000000
